<svg width="20" height="19" viewBox="0 0 20 19" fill="none" xmlns="http://www.w3.org/2000/svg">
<path fill-rule="evenodd" clip-rule="evenodd" d="M18.5 1.5H1.5L1.5 2.5H18.5V1.5ZM1.5 0C0.671573 0 0 0.671573 0 1.5V2.5C0 3.32843 0.671573 4 1.5 4H18.5C19.3284 4 20 3.32843 20 2.5V1.5C20 0.671573 19.3284 0 18.5 0H1.5ZM18.5 8.5H1.5L1.5 9.5H18.5V8.5ZM1.5 7C0.671573 7 0 7.67157 0 8.5V9.5C0 10.3284 0.671573 11 1.5 11H18.5C19.3284 11 20 10.3284 20 9.5V8.5C20 7.67157 19.3284 7 18.5 7H1.5ZM1.5 16H10.5V17H1.5V16ZM0 16C0 15.1716 0.671573 14.5 1.5 14.5H10.5C11.3284 14.5 12 15.1716 12 16V17C12 17.8284 11.3284 18.5 10.5 18.5H1.5C0.671573 18.5 0 17.8284 0 17V16Z" fill="#333333"/>
</svg>
