<svg width="20" height="20" viewBox="0 0 20 20" fill="none" xmlns="http://www.w3.org/2000/svg">
<path fill-rule="evenodd" clip-rule="evenodd" d="M17.8787 4.99999L15 2.12131L13.6213 3.49999L16.5 6.37867L17.8787 4.99999ZM3.62132 13.5L12.5607 4.56065L15.4393 7.43933L6.5 16.3787L3.62132 13.5ZM2.56066 14.5607L1.5 15.6213V18.5H4.37868L5.43934 17.4393L2.56066 14.5607ZM16.0607 1.06065C15.4749 0.474866 14.5251 0.474867 13.9393 1.06065L0.43934 14.5607C0.158035 14.842 0 15.2235 0 15.6213V18.5V20H1.5H4.37868C4.7765 20 5.15804 19.842 5.43934 19.5607L18.9393 6.06065C19.5251 5.47487 19.5251 4.52512 18.9393 3.93933L16.0607 1.06065Z" fill="#333333"/>
</svg>
