<svg width="24" height="19" viewBox="0 0 24 19" fill="none" xmlns="http://www.w3.org/2000/svg">
<path fill-rule="evenodd" clip-rule="evenodd" d="M7.5 1.5V0.75C7.5 0.335786 7.16421 0 6.75 0C6.33579 0 6 0.335787 6 0.75V1.5H1.5C0.671573 1.5 0 2.17157 0 3V17.5C0 18.3284 0.671573 19 1.5 19H22.5C23.3284 19 24 18.3284 24 17.5V3C24 2.17157 23.3284 1.5 22.5 1.5H18V0.75C18 0.335786 17.6642 0 17.25 0C16.8358 0 16.5 0.335787 16.5 0.75V1.5H7.5ZM16.5 3.75V3H7.5V3.75C7.5 4.16421 7.16421 4.5 6.75 4.5C6.33579 4.5 6 4.16421 6 3.75V3H1.5V5.75H22.5V3H18V3.75C18 4.16421 17.6642 4.5 17.25 4.5C16.8358 4.5 16.5 4.16421 16.5 3.75ZM22.5 7.25H1.5V17.5H22.5V7.25ZM5.75 9.5C5.63916 9.5 5.5 9.59558 5.5 9.77373C5.5 9.84956 5.52946 9.89861 5.55591 9.92596C5.58532 9.95635 5.65157 10 5.75 10C5.84843 10 5.91468 9.95635 5.94409 9.92596C5.97054 9.89861 6 9.84956 6 9.77373C6 9.59558 5.86084 9.5 5.75 9.5ZM5.75 11C6.44036 11 7 10.451 7 9.77373C7 9.09647 6.44036 8.5 5.75 8.5C5.05964 8.5 4.5 9.09647 4.5 9.77373C4.5 10.451 5.05964 11 5.75 11ZM18 14C18 13.8619 18.1119 13.75 18.25 13.75C18.3881 13.75 18.5 13.8619 18.5 14C18.5 14.1381 18.3881 14.25 18.25 14.25C18.1119 14.25 18 14.1381 18 14ZM19.5 14C19.5 14.6904 18.9404 15.25 18.25 15.25C17.5596 15.25 17 14.6904 17 14C17 13.3097 17.5596 12.75 18.25 12.75C18.9404 12.75 19.5 13.3097 19.5 14ZM12 13.975C11.8619 13.975 11.75 14.0869 11.75 14.225C11.75 14.3631 11.8619 14.475 12 14.475C12.1381 14.475 12.25 14.3631 12.25 14.225C12.25 14.0869 12.1381 13.975 12 13.975ZM12 15.475C12.6904 15.475 13.25 14.9154 13.25 14.225C13.25 13.5346 12.6904 12.975 12 12.975C11.3096 12.975 10.75 13.5346 10.75 14.225C10.75 14.9154 11.3096 15.475 12 15.475ZM5.5 14.25C5.5 14.1119 5.61193 14 5.75 14C5.88807 14 6 14.1119 6 14.25C6 14.3881 5.88807 14.5 5.75 14.5C5.61193 14.5 5.5 14.3881 5.5 14.25ZM7 14.25C7 14.9404 6.44036 15.5 5.75 15.5C5.05964 15.5 4.5 14.9404 4.5 14.25C4.5 13.5596 5.05964 13 5.75 13C6.44036 13 7 13.5596 7 14.25ZM18.25 9.5C18.1119 9.5 18 9.61193 18 9.75C18 9.88807 18.1119 10 18.25 10C18.3881 10 18.5 9.88807 18.5 9.75C18.5 9.61193 18.3881 9.5 18.25 9.5ZM18.25 11C18.9404 11 19.5 10.4404 19.5 9.75C19.5 9.05964 18.9404 8.5 18.25 8.5C17.5596 8.5 17 9.05964 17 9.75C17 10.4404 17.5596 11 18.25 11ZM11.75 9.75C11.75 9.61193 11.8619 9.5 12 9.5C12.1381 9.5 12.25 9.61193 12.25 9.75C12.25 9.88807 12.1381 10 12 10C11.8619 10 11.75 9.88807 11.75 9.75ZM13.25 9.75C13.25 10.4404 12.6904 11 12 11C11.3096 11 10.75 10.4404 10.75 9.75C10.75 9.05965 11.3096 8.5 12 8.5C12.6904 8.5 13.25 9.05965 13.25 9.75Z" fill="#333333"/>
</svg>
