<svg width="20" height="20" viewBox="0 0 20 20" fill="none" xmlns="http://www.w3.org/2000/svg">
<path fill-rule="evenodd" clip-rule="evenodd" d="M18.5 1.5V9.37868L9.99999 17.8787L2.12131 10L10.6213 1.5L18.5 1.5ZM18.5 0C19.3284 0 20 0.671573 20 1.5V9.37868C20 9.7765 19.842 10.158 19.5606 10.4393L11.0606 18.9393C10.4749 19.5251 9.52511 19.5251 8.93933 18.9393L1.06065 11.0607C0.474861 10.4749 0.474861 9.52513 1.06065 8.93934L9.56065 0.43934C9.84195 0.158035 10.2235 0 10.6213 0H18.5ZM16 4.75C16 5.16421 15.6642 5.5 15.25 5.5C14.8358 5.5 14.5 5.16421 14.5 4.75C14.5 4.33579 14.8358 4 15.25 4C15.6642 4 16 4.33579 16 4.75ZM17.5 4.75C17.5 5.99264 16.4926 7 15.25 7C14.0073 7 13 5.99264 13 4.75C13 3.50736 14.0073 2.5 15.25 2.5C16.4926 2.5 17.5 3.50736 17.5 4.75Z" fill="#333333"/>
</svg>
