<svg width="13" height="20" viewBox="0 0 13 20" fill="none" xmlns="http://www.w3.org/2000/svg">
<path fill-rule="evenodd" clip-rule="evenodd" d="M11.5 6C11.5 8.15574 9.49243 10.1654 7.10502 10.4624L7.03646 10.9765C7.01849 10.9781 7.00049 10.9796 6.98247 10.981L6.7293 12.5H6.27068L5.79794 9.66358C5.75358 9.39738 5.92845 9.14401 6.19308 9.09109L6.49999 9.02971V9H6.5C7.38537 9 8.14244 8.73435 8.72363 8.31685C9.50304 7.76663 10 6.93306 10 6C10 4.34315 8.433 3 6.5 3C4.76575 3 3.3261 4.08114 3.04839 5.5H1.53572C1.8401 3.36447 4.0467 1.5 6.5 1.5C9.14318 1.5 11.5 3.66426 11.5 6ZM0 6C0 2.68629 3.18629 0 6.5 0C9.81371 0 13 2.68629 13 6C13 8.67472 10.9241 10.9407 8.38082 11.7151L8.13926 13.1644C8.05889 13.6466 7.6417 14 7.15286 14H5.84711C5.35827 14 4.94109 13.6466 4.86072 13.1644L4.31835 9.91018C4.14089 8.8454 4.8404 7.83192 5.89891 7.62022L6.5 7.5C7.82983 7.5 8.5 6.61983 8.5 6C8.5 5.38017 7.82983 4.5 6.5 4.5C5.17017 4.5 4.5 5.38017 4.5 6C4.5 6.04041 4.50285 6.08192 4.50854 6.12423H4.49236C4.43119 6.61789 4.01022 7 3.5 7H1C0.447715 7 0 6.55228 0 6ZM6.5 18.5C7.05228 18.5 7.5 18.0523 7.5 17.5C7.5 16.9477 7.05228 16.5 6.5 16.5C5.94772 16.5 5.5 16.9477 5.5 17.5C5.5 18.0523 5.94772 18.5 6.5 18.5ZM6.5 20C7.88071 20 9 18.8807 9 17.5C9 16.1193 7.88071 15 6.5 15C5.11929 15 4 16.1193 4 17.5C4 18.8807 5.11929 20 6.5 20Z" fill="#333333"/>
</svg>
