<svg width="18" height="20" viewBox="0 0 18 20" fill="none" xmlns="http://www.w3.org/2000/svg">
<path fill-rule="evenodd" clip-rule="evenodd" d="M8 1C8 0.447715 8.44771 0 9 0C9.55228 0 10 0.447715 10 1V2C10 2.02774 9.99887 2.05523 9.99665 2.0824C12.836 2.5571 15 5.02583 15 8V9.5V13.5V15C15 15.2761 15.2239 15.5 15.5 15.5H17.25C17.6642 15.5 18 15.8358 18 16.25C18 16.6642 17.6642 17 17.25 17H15.5H12C12 18.6569 10.6569 20 9 20C7.34315 20 6 18.6569 6 17H2.50484L2.50242 15.5C2.77745 15.4987 3.00001 15.2753 3.00001 15L3 13.5V9.5V8C3 5.02583 5.16399 2.5571 8.00335 2.0824C8.00113 2.05523 8 2.02774 8 2V1ZM2.50242 15.5H0.75C0.335786 15.5 0 15.8358 0 16.25C0 16.6642 0.335786 17 0.75 17H2.49538H2.50001L2.50242 15.5ZM4.5 9.5V8C4.5 5.51472 6.51472 3.5 9 3.5C11.4853 3.5 13.5 5.51472 13.5 8V9.5V13.5V15C13.5 15.1726 13.5219 15.3402 13.563 15.5H9H4.437C4.47813 15.3402 4.50001 15.1726 4.50001 15L4.5 13.5V9.5ZM10.5 17H9H7.5C7.5 17.8284 8.17157 18.5 9 18.5C9.82843 18.5 10.5 17.8284 10.5 17Z" fill="#333333"/>
</svg>
