<svg width="16" height="16" viewBox="0 0 16 16" fill="none" xmlns="http://www.w3.org/2000/svg">
<path fill-rule="evenodd" clip-rule="evenodd" d="M0.928932 1.98959C0.636039 1.6967 0.636039 1.22183 0.928932 0.928932C1.22183 0.636039 1.6967 0.636039 1.98959 0.928932L8 6.93934L14.0104 0.928932C14.3033 0.636039 14.7782 0.636039 15.0711 0.928932C15.364 1.22183 15.364 1.6967 15.0711 1.98959L9.06066 8L15.0711 14.0104C15.364 14.3033 15.364 14.7782 15.0711 15.0711C14.7782 15.364 14.3033 15.364 14.0104 15.0711L8 9.06066L1.98959 15.0711C1.6967 15.364 1.22183 15.364 0.928932 15.0711C0.636039 14.7782 0.636039 14.3033 0.928932 14.0104L6.93934 8L0.928932 1.98959Z" fill="#333333"/>
</svg>
