<svg width="16" height="20" viewBox="0 0 16 20" fill="none" xmlns="http://www.w3.org/2000/svg">
<path fill-rule="evenodd" clip-rule="evenodd" d="M8.5 2V2.5H8H7.5V2C7.5 1.72386 7.72386 1.5 8 1.5C8.27614 1.5 8.5 1.72386 8.5 2ZM6 2.5V2C6 0.895431 6.89543 0 8 0C9.10457 0 10 0.895431 10 2V2.5H14C15.1046 2.5 16 3.39543 16 4.5V5.5C16 6.05228 15.5523 6.5 15 6.5V18C15 19.1046 14.1046 20 13 20H3C1.89543 20 1 19.1046 1 18V6.5C0.447715 6.5 0 6.05228 0 5.5V4.5C0 3.39543 0.895431 2.5 2 2.5H6ZM10 4H8.5H8H7.5H6H2C1.72386 4 1.5 4.22386 1.5 4.5V5H2.5H8H13.5H14.5V4.5C14.5 4.22386 14.2761 4 14 4H10ZM2.5 18V6.5H8H13.5V18C13.5 18.2761 13.2761 18.5 13 18.5H3C2.72386 18.5 2.5 18.2761 2.5 18ZM7.25 8.25C7.25 7.83579 7.58579 7.5 8 7.5C8.41421 7.5 8.75 7.83579 8.75 8.25V16.25C8.75 16.6642 8.41421 17 8 17C7.58579 17 7.25 16.6642 7.25 16.25V8.25ZM4.75 7.5C4.33579 7.5 4 7.83579 4 8.25V16.25C4 16.6642 4.33579 17 4.75 17C5.16421 17 5.5 16.6642 5.5 16.25V8.25C5.5 7.83579 5.16421 7.5 4.75 7.5ZM10.5 8.25C10.5 7.83579 10.8358 7.5 11.25 7.5C11.6642 7.5 12 7.83579 12 8.25V16.25C12 16.6642 11.6642 17 11.25 17C10.8358 17 10.5 16.6642 10.5 16.25V8.25Z" fill="#333333"/>
</svg>
