<svg width="24" height="19" viewBox="0 0 24 19" fill="none" xmlns="http://www.w3.org/2000/svg">
<path fill-rule="evenodd" clip-rule="evenodd" d="M10 1.5H14V3H10V1.5ZM22.5 3H15.5V1.5C15.5 0.671573 14.8284 0 14 0H10C9.17157 0 8.5 0.671573 8.5 1.5V3H1.5C0.671573 3 0 3.67157 0 4.5V9.00001V10.5V17.5C0 18.3284 0.671573 19 1.5 19H22.5C23.3284 19 24 18.3284 24 17.5V10.5V9.00001V4.5C24 3.67157 23.3284 3 22.5 3ZM22.5 9.37501V4.5H1.5V9.37501L6 10.5H6.18466H7V10.25C7 9.83579 7.33579 9.5 7.75 9.5C8.16421 9.5 8.5 9.83579 8.5 10.25V10.5H16V10.25C16 9.83579 16.3358 9.5 16.75 9.5C17.1642 9.5 17.5 9.83579 17.5 10.25V10.5H17.8153H18L22.5 9.37501ZM16 12V12.25C16 12.6642 16.3358 13 16.75 13C17.1642 13 17.5 12.6642 17.5 12.25V12H17.8153C17.938 12 18.0602 11.985 18.1791 11.9552L22.5 10.875V17.5H1.5V10.875L5.82086 11.9552C5.93984 11.985 6.06202 12 6.18466 12H7V12.25C7 12.6642 7.33579 13 7.75 13C8.16421 13 8.5 12.6642 8.5 12.25V12H16ZM20 8L20 8.00001H12.5H3.99997L4 8H20Z" fill="#333333"/>
</svg>
