<svg width="24" height="19" viewBox="0 0 24 19" fill="none" xmlns="http://www.w3.org/2000/svg">
<path fill-rule="evenodd" clip-rule="evenodd" d="M17 1.5H3C2.17157 1.5 1.5 2.17157 1.5 3C1.5 3.82843 2.17157 4.5 3 4.5H17H18.5V3C18.5 2.17157 17.8284 1.5 17 1.5ZM20 3V4.5H22.5C23.3284 4.5 24 5.17157 24 6V17.5C24 18.3284 23.3284 19 22.5 19H1.5C0.671573 19 0 18.3284 0 17.5V8V6.5V6.35416V4.5V3C0 1.34315 1.34315 0 3 0H17C18.6569 0 20 1.34315 20 3ZM1.5 5.59865V6.5V7.24394V8V17.5H22.5V15C20.567 15 19 13.433 19 11.5C19 9.567 20.567 8 22.5 8V6H20H18.5H17H10H3C2.45357 6 1.94126 5.85391 1.5 5.59865ZM22.5 9.5C21.3954 9.5 20.5 10.3954 20.5 11.5C20.5 12.6046 21.3954 13.5 22.5 13.5V9.5Z" fill="#F5F5F5"/>
</svg>
