<svg width="18" height="20" viewBox="0 0 18 20" fill="none" xmlns="http://www.w3.org/2000/svg">
<path fill-rule="evenodd" clip-rule="evenodd" d="M1.83975 6.44338C1.83975 6.08611 2.03035 5.75598 2.33975 5.57735L8.50001 2.02073C8.80941 1.84209 9.19061 1.84209 9.50001 2.02073L15.6603 5.57735C15.9697 5.75598 16.1603 6.08611 16.1603 6.44338V13.5566C16.1603 13.9139 15.9697 14.244 15.6603 14.4227L9.50001 17.9793C9.19061 18.1579 8.80941 18.1579 8.50001 17.9793L2.33975 14.4227C2.03035 14.244 1.83975 13.9139 1.83975 13.5566V6.44338ZM8.50001 0.288675C8.80941 0.110042 9.19061 0.110043 9.50001 0.288675L17.1603 4.71132C17.4697 4.88996 17.6603 5.22009 17.6603 5.57735V14.4226C17.6603 14.7799 17.4697 15.11 17.1603 15.2887L9.50001 19.7113C9.19061 19.89 8.80941 19.89 8.50001 19.7113L0.839752 15.2887C0.530351 15.11 0.339752 14.7799 0.339752 14.4226V5.57735C0.339752 5.22008 0.530352 4.88996 0.839753 4.71132L8.50001 0.288675ZM11.5 10C11.5 11.3807 10.3807 12.5 9.00001 12.5C7.6193 12.5 6.50001 11.3807 6.50001 10C6.50001 8.61929 7.6193 7.5 9.00001 7.5C10.3807 7.5 11.5 8.61929 11.5 10ZM13 10C13 12.2091 11.2091 14 9.00001 14C6.79087 14 5.00001 12.2091 5.00001 10C5.00001 7.79086 6.79087 6 9.00001 6C11.2091 6 13 7.79086 13 10Z" fill="#F5F5F5"/>
</svg>
